<?xml version="1.0" encoding="UTF-8" standalone="no"?>
<!DOCTYPE svg PUBLIC "-//W3C//DTD SVG 1.1//EN" "http://www.w3.org/Graphics/SVG/1.1/DTD/svg11.dtd">
<svg width="100%" height="100%" viewBox="0 0 64 64" version="1.1" xmlns="http://www.w3.org/2000/svg" xmlns:xlink="http://www.w3.org/1999/xlink" xml:space="preserve" xmlns:serif="http://www.serif.com/" style="fill-rule:evenodd;clip-rule:evenodd;stroke-linejoin:round;">
    <g transform="matrix(1,0,0,1,-20,0)">
        <g id="Layer-1" serif:id="Layer 1">
            <g id="g3822">
                <path id="path3010" d="M47.588,10.25L37,16.797L58.176,18.434L67,11.887L47.588,10.25Z" style="fill:rgb(114,159,207);fill-rule:nonzero;stroke:rgb(11,21,33);stroke-width:1.7px;"/>
                <path id="path3798" d="M37,16.797L37,56.082L58.176,57.719L58.176,18.434L37,16.797Z" style="fill:rgb(114,159,207);fill-rule:nonzero;stroke:black;stroke-width:1.7px;"/>
                <path id="path3800" d="M67,11.887L67,51.171L58.176,57.719L58.176,18.434L67,11.887Z" style="fill:rgb(52,101,164);fill-rule:nonzero;stroke:rgb(11,21,33);stroke-width:1.7px;"/>
                <path id="path3802" d="M38.765,18.516L38.765,54.609L56.412,56L56.412,19.907L38.765,18.516Z" style="fill:url(#_Linear1);fill-rule:nonzero;stroke:rgb(114,159,207);stroke-width:1.7px;stroke-linejoin:miter;"/>
                <path id="path3812" d="M59.941,19.253L59.941,54.281L65.235,50.353L65.235,15.324L59.941,19.253Z" style="fill:url(#_Linear2);fill-rule:nonzero;stroke:rgb(52,101,164);stroke-width:1.7px;stroke-linejoin:miter;"/>
                <path id="path3010-6-7-5" d="M69,19L69,26L59,36L35,35L35,27L21,43L70,45L83,20L69,19Z" style="fill:rgb(158,179,183);fill-rule:nonzero;stroke:rgb(251,116,5);stroke-width:2.39px;"/>
            </g>
        </g>
    </g>
    <defs>
        <linearGradient id="_Linear1" x1="0" y1="0" x2="1" y2="0" gradientUnits="userSpaceOnUse" gradientTransform="matrix(6.17647,34.3739,-34.3739,6.17647,44.0588,19.2527)"><stop offset="0" style="stop-color:rgb(114,159,207);stop-opacity:1"/><stop offset="1" style="stop-color:rgb(52,101,164);stop-opacity:1"/></linearGradient>
        <linearGradient id="_Linear2" x1="0" y1="0" x2="1" y2="0" gradientUnits="userSpaceOnUse" gradientTransform="matrix(2.64706,32.737,-32.737,2.64706,60.8235,17.6158)"><stop offset="0" style="stop-color:rgb(52,101,164);stop-opacity:1"/><stop offset="1" style="stop-color:rgb(32,74,135);stop-opacity:1"/></linearGradient>
    </defs>
</svg>
