<?xml version="1.0" encoding="UTF-8" standalone="no"?>
<!DOCTYPE svg PUBLIC "-//W3C//DTD SVG 1.1//EN" "http://www.w3.org/Graphics/SVG/1.1/DTD/svg11.dtd">
<svg width="100%" height="100%" viewBox="0 0 48 48" version="1.1" xmlns="http://www.w3.org/2000/svg" xmlns:xlink="http://www.w3.org/1999/xlink" xml:space="preserve" xmlns:serif="http://www.serif.com/" style="fill-rule:evenodd;clip-rule:evenodd;stroke-linecap:round;stroke-linejoin:round;stroke-miterlimit:1.5;">
    <rect x="4.23" y="3.954" width="40.126" height="37.896" style="fill:rgb(221,219,234);stroke:rgb(46,15,190);stroke-width:1px;"/>
    <g transform="matrix(0.670476,0,0,0.535053,8.62718,8.15045)">
        <path d="M24,4C20.492,4 17.57,6.621 17.08,10L10.238,10C10.153,9.985 10.067,9.978 9.98,9.979C9.906,9.98 9.831,9.987 9.758,10L6.5,10C6.493,10 6.486,10 6.479,10C5.656,10 4.979,10.677 4.979,11.5C4.979,12.323 5.656,13 6.479,13C6.486,13 6.493,13 6.5,13L8.639,13L11.156,39.029C11.427,41.836 13.812,44 16.631,44L31.367,44C34.186,44 36.571,41.836 36.842,39.029L39.361,13L41.5,13C41.507,13 41.514,13 41.521,13C42.344,13 43.021,12.323 43.021,11.5C43.021,10.677 42.344,10 41.521,10C41.514,10 41.507,10 41.5,10L38.244,10C38.085,9.974 37.923,9.974 37.764,10L30.92,10C30.43,6.621 27.508,4 24,4ZM24,7C25.879,7 27.421,8.268 27.861,10L20.139,10C20.579,8.268 22.121,7 24,7ZM11.65,13L36.348,13L33.855,38.74C33.73,40.035 32.668,41 31.367,41L16.631,41C15.332,41 14.267,40.034 14.143,38.74L11.65,13ZM20.477,17.979C19.654,17.991 18.988,18.678 19,19.5L19,34.5C19,34.507 19,34.514 19,34.521C19,35.344 19.677,36.021 20.5,36.021C21.323,36.021 22,35.344 22,34.521C22,34.514 22,34.507 22,34.5L22,19.5C22,19.493 22,19.486 22,19.478C22,18.656 21.323,17.978 20.5,17.978C20.492,17.978 20.484,17.978 20.477,17.979ZM27.477,17.979C26.654,17.991 25.988,18.678 26,19.5L26,34.5C26,34.507 26,34.514 26,34.521C26,35.344 26.677,36.021 27.5,36.021C28.323,36.021 29,35.344 29,34.521C29,34.514 29,34.507 29,34.5L29,19.5C29,19.493 29,19.486 29,19.478C29,18.656 28.323,17.978 27.5,17.978C27.492,17.978 27.484,17.978 27.477,17.979Z" style="fill:rgb(60,16,240);fill-rule:nonzero;"/>
    </g>
</svg>
