<?xml version="1.0" encoding="UTF-8" standalone="no"?>
<!DOCTYPE svg PUBLIC "-//W3C//DTD SVG 1.1//EN" "http://www.w3.org/Graphics/SVG/1.1/DTD/svg11.dtd">
<svg width="100%" height="100%" viewBox="0 0 64 64" version="1.1" xmlns="http://www.w3.org/2000/svg" xmlns:xlink="http://www.w3.org/1999/xlink" xml:space="preserve" xmlns:serif="http://www.serif.com/" style="fill-rule:evenodd;clip-rule:evenodd;stroke-linejoin:round;">
    <g id="Layer-1" serif:id="Layer 1">
        <g id="path2995" transform="matrix(-1.49397,0,0,0.900052,104.547,-3.53737)">
            <path d="M54.46,9.658L54.125,48.845L33.143,61.695L31.969,20.174L54.46,9.658Z" style="fill:rgb(116,82,116);fill-rule:nonzero;stroke:rgb(44,28,183);stroke-width:0.45px;"/>
        </g>
        <path d="M27.748,20.881L37.491,16.652" style="fill:none;stroke:rgb(240,239,246);stroke-width:0.55px;stroke-linecap:round;stroke-miterlimit:1.5;"/>
        <path d="M47.172,22.297L37.491,16.652" style="fill:none;stroke:rgb(240,239,246);stroke-width:0.55px;stroke-linecap:round;stroke-miterlimit:1.5;"/>
        <path d="M47.673,30.583L47.172,22.297" style="fill:none;stroke:rgb(240,239,246);stroke-width:0.55px;stroke-linecap:round;stroke-miterlimit:1.5;"/>
        <path d="M38.132,31.842L47.673,30.583" style="fill:none;stroke:rgb(240,239,246);stroke-width:0.55px;stroke-linecap:round;stroke-miterlimit:1.5;"/>
        <path d="M38.132,31.842L27.735,20.776" style="fill:none;stroke:rgb(240,239,246);stroke-width:0.55px;stroke-linecap:round;stroke-miterlimit:1.5;"/>
        <path d="M27.431,20.835L27.431,20.858C27.431,21.134 27.655,21.358 27.931,21.358C28.207,21.358 28.431,21.134 28.431,20.858L28.431,20.835C28.431,20.559 28.207,20.335 27.931,20.335C27.655,20.335 27.431,20.559 27.431,20.835Z" style="fill:rgb(255,0,22);"/>
        <path d="M37.501,17.338L37.524,17.338C37.8,17.338 38.024,17.114 38.024,16.838C38.024,16.562 37.8,16.338 37.524,16.338L37.501,16.338C37.225,16.338 37.001,16.562 37.001,16.838C37.001,17.114 37.225,17.338 37.501,17.338Z" style="fill:rgb(255,0,22);"/>
        <path d="M47.162,21.881L47.161,21.881C46.927,21.798 46.662,21.901 46.548,22.129C46.424,22.376 46.525,22.676 46.771,22.8C46.921,22.875 46.94,22.876 47.088,22.876C47.363,22.876 47.588,22.651 47.588,22.376C47.588,22.125 47.402,21.917 47.162,21.881ZM47.161,21.881C47.141,21.875 47.123,21.876 47.088,21.876C47.113,21.876 47.137,21.877 47.161,21.881C47.181,21.888 47.2,21.896 47.219,21.905C47.193,21.892 47.176,21.885 47.162,21.881L47.161,21.881L47.161,21.881Z" style="fill:rgb(255,0,22);"/>
        <path d="M47.609,29.889L47.595,29.889C47.319,29.889 47.095,30.113 47.095,30.389C47.095,30.727 47.312,30.826 47.343,30.843C47.454,30.908 47.585,30.939 47.744,30.89C47.762,30.884 47.852,30.862 47.972,30.742C48.167,30.547 48.167,30.23 47.972,30.035C47.872,29.935 47.74,29.886 47.609,29.889Z" style="fill:rgb(255,0,22);"/>
        <path d="M38.471,32.372C38.486,32.364 38.502,32.356 38.517,32.349C38.764,32.225 38.864,31.925 38.741,31.678C38.617,31.431 38.317,31.331 38.07,31.454C38.054,31.462 38.039,31.47 38.024,31.477C37.777,31.601 37.677,31.901 37.8,32.148C37.923,32.395 38.224,32.495 38.471,32.372Z" style="fill:rgb(255,0,22);"/>
        <path d="M10.426,21.737L35.61,22.54L35.655,19.883L41.296,25.183L35.77,28.007L35.815,26.054L10.595,25.003L10.426,21.737Z" style="fill:rgb(0,75,255);stroke:rgb(207,50,234);stroke-width:0.55px;stroke-linecap:round;stroke-miterlimit:1.5;"/>
    </g>
</svg>
